<?xml version="1.0" encoding="UTF-8" standalone="no"?>
<svg
   width="210mm"
   height="297mm"
   viewBox="0 0 210 297"
   version="1.1"
   id="svg2898"
   sodipodi:docname="Logo.svg"
   inkscape:version="1.0.1 (3bc2e813f5, 2020-09-07)">
  <title
     id="title3068">Vela's Cakes</title>
  <defs
     id="defs2892">
    <linearGradient
       inkscape:collect="always"
       id="linearGradient2883">
      <stop
         style="stop-color:#0000ff;stop-opacity:1;"
         offset="0"
         id="stop2879" />
      <stop
         style="stop-color:#0000ff;stop-opacity:0;"
         offset="1"
         id="stop2881" />
    </linearGradient>
    <linearGradient
       id="linearGradient2873"
       osb:paint="solid">
      <stop
         style="stop-color:#0000ff;stop-opacity:1;"
         offset="0"
         id="stop2871" />
    </linearGradient>
    <linearGradient
       id="linearGradient2867"
       osb:paint="solid">
      <stop
         style="stop-color:#000001;stop-opacity:1;"
         offset="0"
         id="stop2865" />
    </linearGradient>
    <linearGradient
       inkscape:collect="always"
       xlink:href="#linearGradient2867"
       id="linearGradient2869"
       x1="324.85699"
       y1="349.58816"
       x2="458.3899"
       y2="349.58816"
       gradientUnits="userSpaceOnUse" />
    <linearGradient
       inkscape:collect="always"
       xlink:href="#linearGradient2883"
       id="linearGradient2885"
       x1="353.288"
       y1="389.68841"
       x2="481.18112"
       y2="389.68841"
       gradientUnits="userSpaceOnUse" />
  </defs>
  <sodipodi:namedview
     id="base"
     pagecolor="#ffffff"
     bordercolor="#666666"
     borderopacity="1.0"
     inkscape:pageopacity="0.0"
     inkscape:pageshadow="2"
     inkscape:zoom="0.7"
     inkscape:cx="124.56024"
     inkscape:cy="532.10219"
     inkscape:document-units="mm"
     inkscape:current-layer="g54"
     inkscape:document-rotation="0"
     showgrid="false"
     inkscape:window-width="2560"
     inkscape:window-height="1387"
     inkscape:window-x="-8"
     inkscape:window-y="-8"
     inkscape:window-maximized="1" />
  <metadata
     id="metadata2895">
    <rdf:RDF>
      <cc:Work
         rdf:about="">
        <dc:format>image/svg+xml</dc:format>
        <dc:type
           rdf:resource="http://purl.org/dc/dcmitype/StillImage" />
        <dc:title>Vela's Cakes</dc:title>
      </cc:Work>
    </rdf:RDF>
  </metadata>
  <g
     inkscape:label="Capa 1"
     inkscape:groupmode="layer"
     id="layer1">
    <g
       id="g42"
       transform="matrix(0.76525986,0,0,0.76525986,-194.53092,-30.691757)">
      <title
         id="title37">background</title>
      <rect
         x="-1"
         y="-1"
         width="39.96611"
         height="30.474581"
         id="canvas_background"
         fill="#ffffff" />
      <g
         id="canvasGrid"
         display="inline">
        <rect
           id="svg_5"
           width="100%"
           height="100%"
           x="0"
           y="0"
           stroke-width="0"
           fill="url(#gridpattern)" />
      </g>
    </g>
    <g
       id="g54"
       style="display:inline;stroke-width:1.5;stroke-miterlimit:4;stroke-dasharray:none"
       transform="matrix(0.76525986,0,0,0.76525986,-196.11843,-31.750091)">
      <title
         id="title44">Layer 1</title>
      <path
         fill="#f2decb"
         stroke="#000000"
         stroke-width="1.5"
         stroke-opacity="null"
         d="m 385.74887,147.43869 c -0.13492,-15.95472 0.32628,-29.1483 0.19142,-45.10301 -0.0917,-3.076413 3.10429,-6.169553 6.70932,-6.184226 3.37023,0.735013 6.26992,0.71869 8.02826,0.05089 4.56964,-0.870405 7.95407,1.999503 7.99006,4.784606 -0.011,16.06742 -0.0872,30.00427 -0.0983,46.07168 -7.33683,-0.42744 -14.08081,-0.35808 -22.82079,0.38005 z"
         id="svg_6"
         style="stroke-width:1.5;stroke-miterlimit:4;stroke-dasharray:none" />
      <path
         fill="#f4f409"
         stroke="#000000"
         stroke-width="1.5"
         stroke-opacity="null"
         d="m 461.3776,207.08242 c 3.9395,-12.92478 3.99346,-28.27802 4.04743,-43.63127 -0.51267,-6.39494 -2.64432,-10.28047 -11.73754,-11.6566 -34.24125,-4.23631 -73.25846,-12.76289 -126.03693,10.60426 -4.80295,2.6713 -6.52985,5.26166 -5.90925,9.71383 0.97138,6.20606 2.50941,11.92642 4.85691,17.1611 2.34751,5.23467 3.88553,9.87573 6.79968,0.72854 1.21423,-4.61407 2.59035,-7.36632 5.58545,-11.81849 2.53639,-3.21096 6.20606,-7.79805 12.22324,-4.61407 5.99019,2.59035 14.24695,8.3377 23.55604,0.72854 6.23304,-5.20769 15.05644,-8.87736 24.04173,-1.05233 3.23794,2.8332 5.01881,5.6664 7.52822,10.19952 2.91415,4.39821 4.45217,7.66313 10.92806,1.53802 2.8332,-2.50941 4.29027,-4.45217 6.79968,-7.04253 1.51104,-0.89043 3.75062,-1.21423 5.74735,-0.72854 0.99837,0.26983 1.59199,1.1063 1.78087,2.26656 0.80949,1.48406 2.10466,1.34914 2.91415,1.53802 1.32216,0.21586 2.40147,0.26983 3.23794,-0.081 1.29518,-0.48569 2.91415,-0.80949 3.88553,-1.45707 2.53639,-1.26819 4.58709,-1.07931 5.90925,2.75225 0.18888,8.3377 5.88226,15.46118 6.39494,24.04173 2.48242,0.26982 4.96485,0.53965 7.44727,0.80947 z"
         id="svg_4"
         style="stroke-width:1.5;stroke-miterlimit:4;stroke-dasharray:none" />
      <path
         fill="#ff0fef"
         stroke="#000000"
         stroke-width="1.5"
         stroke-opacity="null"
         d="m 304.06373,261.94087 c -6.55024,-14.68284 -11.99651,-28.37211 -10.04616,-47.36044 1.69276,-6.40304 4.82068,-6.51344 8.059,-7.28622 44.19573,-10.45095 86.2939,-16.15481 126.18414,-10.04616 17.99476,2.24475 34.33357,4.1583 52.32833,6.40304 7.72781,1.17757 11.15013,-0.0736 12.2541,5.51987 0.99358,17.92116 -1.98715,26.56895 -7.94861,35.54794 -4.71029,7.47022 -7.32302,5.00468 -9.16298,-0.1104 -3.12792,-7.47022 -2.39194,-14.38845 -6.07185,-20.09231 -2.35514,-5.92466 -3.82711,-5.66706 -7.50702,-1.32477 -1.95035,2.87033 -4.56309,5.63026 -7.39662,6.73424 -8.50059,3.16472 -15.78682,1.03037 -22.52105,-1.10397 -11.07653,-3.16472 -18.39955,-10.19335 -29.58648,-11.15013 -8.90538,-0.55199 -13.17408,-1.21437 -17.44278,1.98715 -8.3534,6.51344 -2.24475,19.09874 -7.50702,25.83297 -4.52629,7.24942 -12.03331,5.66706 -16.22841,1.54556 -5.44627,-7.80141 -11.11333,-15.93401 -17.99476,-20.7547 -4.0111,-3.82711 -5.92466,-4.34229 -6.29265,-1.43517 0,1.10397 -0.1104,3.53271 -0.44159,4.85748 -1.76636,4.67349 -5.18867,5.26227 -8.94218,4.74708 -2.35514,-0.51519 -4.82068,-1.14077 -7.72781,-0.88318 -2.72313,0.33119 -5.77746,2.09755 -6.84463,4.3055 -2.79673,6.91823 -0.62558,15.82362 -4.0847,23.40423 -1.69276,0.22079 -3.38552,0.44159 -5.07828,0.66238 z"
         id="svg_3"
         style="stroke-width:1.5;stroke-miterlimit:4;stroke-dasharray:none" />
      <path
         fill="#ef1010"
         stroke="#000000"
         stroke-width="1.5"
         d="m 276.97884,375.45889 c -8.64004,-32.66101 -10.74222,-64.98588 -9.25639,-98.48722 1.75187,-16.91852 12.37169,-19.55135 22.88262,-19.99932 75.0693,-5.209 140.46724,-5.20793 208.59668,-2.68585 21.65545,0.16056 20.91671,4.52278 23.39693,11.74214 -0.69312,31.72922 -3.26463,37.07195 -8.91047,50.14575 -7.85423,17.89644 -14.1334,7.55764 -19.04178,3.43732 -4.50443,-4.69729 -8.89999,-11.57944 -13.54679,-13.41959 -4.62068,-0.64587 -8.41777,-0.9556 -11.76033,3.10441 -3.86791,5.20363 -6.03898,6.7098 -10.12577,9.56049 -9.10368,5.04308 -12.8728,0.84248 -18.41471,-1.50938 -12.4963,-10.8269 -26.75644,-16.61179 -43.20927,-18.86728 -2.48789,4.53459 -6.59839,4.53137 -10.03663,4.52815 -2.26717,9.35336 -3.6862,15.17732 -7.22253,23.01808 -6.40505,11.59661 -16.47691,5.71427 -20.33867,0 -5.35976,-8.55317 -11.04727,-17.2744 -16.07927,-25.6595 -2.46595,-4.36974 -5.3931,-2.85714 -7.54691,0 -2.44232,7.79848 -4.57364,16.10115 -8.33538,23.39543 -2.57416,5.4172 -6.75418,5.96047 -9.64048,4.1508 -2.06935,-1.3836 -3.09679,-3.43947 -6.20804,-4.1508 -2.57451,0.33291 -5.83804,1.00196 -7.39521,4.52815 -5.53361,16.25334 -7.88289,29.3134 -16.60083,48.76001 -5.18731,11.73828 -7.42762,8.18249 -11.20681,-1.59179 z"
         id="svg_2"
         style="stroke-width:1.5;stroke-miterlimit:4;stroke-dasharray:none" />
      <path
         id="svg_9"
         d="M 395.66393,83.9177"
         opacity="0.5"
         fill-opacity="null"
         stroke-opacity="null"
         stroke-width="1.5"
         stroke="#000000"
         fill="none"
         style="stroke-width:1.5;stroke-miterlimit:4;stroke-dasharray:none" />
      <path
         stroke="#000000"
         id="svg_13"
         d="m 397.03525,90.451033 c -3.75715,1.06654 -13.84085,0.46055 -9.30803,-11.41688 3.27235,-7.51429 3.99954,-14.44684 5.45392,-25.16076 0.21816,-8.50812 1.81797,-5.7448 2.83604,0.43631 1.76949,8.26572 5.5024,8.96867 7.70821,13.67117 7.78093,8.53236 2.47245,17.93735 0.21816,19.34325 -2.4482,1.86646 -4.89641,2.49669 -6.9083,3.12692 z"
         stroke-width="1.5"
         fill="#f2a409"
         style="stroke-width:1.5;stroke-miterlimit:4;stroke-dasharray:none" />
      <path
         id="svg_10"
         d="m 397.18069,96.633802 c -0.0485,-2.060919 -0.097,-4.121839 -0.14544,-6.182759 z"
         fill-opacity="null"
         stroke-opacity="null"
         stroke-width="1.5"
         stroke="#000000"
         fill="none"
         style="stroke-width:1.5;stroke-miterlimit:4;stroke-dasharray:none" />
    </g>
    <text
       xml:space="preserve"
       style="font-style:normal;font-weight:normal;font-size:40.8138px;line-height:1.25;font-family:sans-serif;mix-blend-mode:hard-light;fill:#0000ff;fill-opacity:1;stroke:#000000;stroke-width:1.68357;stroke-linejoin:round;stroke-miterlimit:4;stroke-dasharray:none;stroke-dashoffset:0;stroke-opacity:1;paint-order:stroke markers fill"
       x="47.844124"
       y="254.40723"
       id="text66"><tspan
         sodipodi:role="line"
         x="47.844124"
         y="254.40723"
         id="tspan68"
         style="font-style:normal;font-variant:normal;font-weight:normal;font-stretch:normal;font-size:40.8138px;font-family:Pacifico;-inkscape-font-specification:Pacifico;fill:#0000ff;stroke:#000000;stroke-width:1.68357;stroke-linejoin:round;stroke-miterlimit:4;stroke-dasharray:none;stroke-dashoffset:0;stroke-opacity:1;paint-order:stroke markers fill">Vela's</tspan></text>
    <text
       xml:space="preserve"
       style="font-style:normal;font-variant:normal;font-weight:normal;font-stretch:normal;font-size:40.8138px;line-height:1.25;font-family:Pacifico;-inkscape-font-specification:Pacifico;fill:#0000ff;fill-opacity:1;fill-rule:nonzero;stroke:#000000;stroke-width:1.68357;stroke-miterlimit:4;stroke-dasharray:none;stroke-opacity:1;paint-order:stroke fill markers"
       x="71.451202"
       y="290.54385"
       id="text74"><tspan
         sodipodi:role="line"
         id="tspan72"
         x="71.451202"
         y="290.54385"
         style="fill:#0000ff;fill-opacity:1;fill-rule:nonzero;stroke:#000000;stroke-width:1.68357;stroke-miterlimit:4;stroke-dasharray:none;stroke-opacity:1;paint-order:stroke fill markers">Cakes</tspan></text>
  </g>
</svg>
